<?xml version="1.0" encoding="UTF-8" standalone="no"?><!DOCTYPE svg PUBLIC "-//W3C//DTD SVG 1.1//EN" "http://www.w3.org/Graphics/SVG/1.1/DTD/svg11.dtd"><svg width="100%" height="100%" viewBox="0 0 495 71" version="1.1" xmlns="http://www.w3.org/2000/svg" xmlns:xlink="http://www.w3.org/1999/xlink" xml:space="preserve" xmlns:serif="http://www.serif.com/" style="fill-rule:evenodd;clip-rule:evenodd;stroke-linecap:round;stroke-linejoin:round;stroke-miterlimit:1.5;"><g id="logotype-desktop"><path d="M110.572,52.952l5.207,-0.832c0.291,2.121 1.11,3.745 2.449,4.882c1.329,1.126 3.199,1.695 5.608,1.695c2.418,0 4.217,-0.508 5.387,-1.503c1.169,-1.004 1.759,-2.182 1.759,-3.521c0,-1.218 -0.52,-2.162 -1.559,-2.862c-0.72,-0.477 -2.519,-1.076 -5.388,-1.807c-3.857,-0.995 -6.546,-1.847 -8.036,-2.578c-1.489,-0.72 -2.628,-1.725 -3.398,-3.004c-0.769,-1.279 -1.159,-2.689 -1.159,-4.232c0,-1.411 0.32,-2.71 0.959,-3.908c0.63,-1.207 1.499,-2.202 2.589,-2.993c0.819,-0.609 1.939,-1.137 3.349,-1.564c1.418,-0.425 2.937,-0.639 4.557,-0.639c2.439,0 4.578,0.365 6.427,1.076c1.849,0.71 3.208,1.675 4.088,2.892c0.879,1.228 1.479,2.852 1.809,4.893l-5.148,0.72c-0.239,-1.624 -0.919,-2.893 -2.039,-3.806c-1.119,-0.913 -2.708,-1.37 -4.757,-1.37c-2.419,0 -4.148,0.406 -5.177,1.218c-1.04,0.812 -1.56,1.766 -1.56,2.852c0,0.7 0.22,1.319 0.65,1.877c0.429,0.579 1.099,1.046 2.019,1.431c0.53,0.193 2.079,0.65 4.657,1.361c3.728,1.014 6.327,1.836 7.797,2.486c1.479,0.639 2.638,1.583 3.478,2.811c0.839,1.228 1.259,2.75 1.259,4.578c0,1.785 -0.519,3.46 -1.539,5.044c-1.029,1.573 -2.508,2.791 -4.438,3.654c-1.929,0.862 -4.118,1.288 -6.557,1.288c-4.048,0 -7.126,-0.852 -9.245,-2.557c-2.119,-1.706 -3.468,-4.233 -4.048,-7.582m-56.94,-22.284c-8.743,3.841 -14.887,12.692 -14.887,22.952c0,5.813 1.972,11.172 5.271,15.425c-5.001,-5.053 -8.104,-12.04 -8.104,-19.74c0,-4.968 1.293,-9.639 3.552,-13.685c-0.06,-0.002 -0.12,-0.002 -0.181,-0.002c-1.159,0 -2.189,0.354 -3.108,1.055c-0.92,0.71 -1.569,1.685 -1.959,2.933c-0.59,1.898 -0.879,3.978 -0.879,6.242l0,16.533l-5.268,0l0,-31.574l4.738,0l0,4.78c1.209,-2.233 2.328,-3.715 3.358,-4.425c1.019,-0.711 2.149,-1.076 3.378,-1.076c1.11,0 2.228,0.225 3.359,0.673c3.865,-4.391 9.074,-7.538 14.96,-8.761c-2.337,2.777 -3.967,5.639 -4.23,8.67m36.703,23.794c0.426,1.019 1.038,1.866 1.833,2.54c1.329,1.126 3.198,1.695 5.606,1.695c2.419,0 4.219,-0.508 5.388,-1.503c1.17,-1.004 1.759,-2.182 1.759,-3.521c0,-1.218 -0.519,-2.162 -1.559,-2.862c-0.719,-0.477 -2.519,-1.076 -5.388,-1.807c-3.277,-0.845 -5.711,-1.586 -7.282,-2.239c0.075,0.837 0.116,1.684 0.116,2.54c0,1.761 -0.163,3.485 -0.473,5.157m-31.833,-10.958l5.509,4.936c-0.81,5.705 0.324,10.586 1.945,15.632l-3.565,6.253l-0.324,-1.975l1.459,-4.607c-2.81,-5.924 -4.808,-12.34 -5.024,-20.239m19.283,16.619l3.079,9.873l1.135,-4.936l-1.945,-3.456l0.973,-3.785l-6.807,-9.379l-1.381,0.317c-8.849,-7.357 -10.357,-13.986 -8.456,-20.108c13.086,0.549 23.592,11.554 23.592,24.971c0,5.813 -1.973,11.173 -5.272,15.427c2.422,-2.448 4.4,-5.348 5.794,-8.565c0.021,0.017 0.042,0.035 0.062,0.052c2.119,1.705 5.198,2.557 9.245,2.557c2.439,0 4.629,-0.426 6.557,-1.288c1.929,-0.863 3.409,-2.081 4.438,-3.654c1.02,-1.584 1.539,-3.259 1.539,-5.044c0,-1.828 -0.42,-3.35 -1.259,-4.578c-0.839,-1.228 -1.999,-2.172 -3.478,-2.811c-1.469,-0.65 -4.068,-1.472 -7.797,-2.486c-2.579,-0.711 -4.127,-1.168 -4.657,-1.361c-0.92,-0.385 -1.589,-0.852 -2.019,-1.431c-0.43,-0.558 -0.65,-1.177 -0.65,-1.877c0,-1.086 0.52,-2.04 1.559,-2.852c1.03,-0.812 2.759,-1.218 5.178,-1.218c2.049,0 3.638,0.457 4.758,1.37c1.119,0.913 1.799,2.182 2.039,3.806l5.147,-0.72c-0.33,-2.041 -0.93,-3.665 -1.809,-4.893c-0.879,-1.217 -2.239,-2.182 -4.088,-2.892c-1.849,-0.711 -3.988,-1.076 -6.427,-1.076c-1.619,0 -3.138,0.214 -4.558,0.639c-1.409,0.427 -2.528,0.955 -3.348,1.564c-0.897,0.652 -1.644,1.442 -2.232,2.374c-4.092,-6.694 -10.899,-11.512 -18.838,-12.852c5.059,-7.403 13.248,-14.113 16.246,-20.595l-1.458,-0.823c-5.942,15.138 -41.376,26.328 -17.825,44.921c1.836,1.865 1.08,3.236 1.944,4.936l11.019,9.873Zm-55.876,-9.312l5.178,0.69c-0.56,3.623 -2.009,6.465 -4.348,8.515c-2.329,2.05 -5.198,3.075 -8.596,3.075c-4.248,0 -7.676,-1.41 -10.255,-4.232c-2.589,-2.821 -3.888,-6.871 -3.888,-12.149c0,-3.41 0.56,-6.394 1.669,-8.951c1.12,-2.558 2.809,-4.476 5.088,-5.755c2.269,-1.279 4.748,-1.918 7.416,-1.918c3.379,0 6.147,0.873 8.286,2.608c2.149,1.736 3.528,4.193 4.138,7.389l-5.127,0.802c-0.49,-2.121 -1.35,-3.714 -2.589,-4.791c-1.239,-1.065 -2.739,-1.603 -4.498,-1.603c-2.658,0 -4.818,0.964 -6.477,2.902c-1.659,1.929 -2.489,4.984 -2.489,9.165c0,4.243 0.8,7.328 2.409,9.257c1.599,1.918 3.688,2.882 6.267,2.882c2.069,0 3.788,-0.65 5.178,-1.939c1.389,-1.289 2.268,-3.268 2.638,-5.947m41.292,-40.545c1.517,0 2.755,1.996 2.755,4.443c0,2.447 -1.238,4.443 -2.755,4.443c-1.517,0 -2.755,-1.996 -2.755,-4.443c0,-2.447 1.238,-4.443 2.755,-4.443m-10.533,2.304l5.186,8.227l2.268,-0.164l-6.968,-10.203l-0.486,2.14Z" style="fill:#0076a8;"/><g><g transform="matrix(0.5,0,0,0.5,-7030,-6.3372)"><text x="14393.4px" y="71.5px" style="font-family:'Roboto-Regular', 'Roboto';font-size:22px;">S<tspan x="14407.2px 14420.8px 14436.7px 14456.5px 14471.7px 14486px 14499.9px 14513.7px 14527.6px 14541.5px 14554.8px 14571.2px 14578px 14590.9px 14596.7px 14611.3px 14626.3px 14636px 14649.9px 14664.9px 14678.7px 14692.3px 14698.2px 14711.1px 14717.9px 14731.8px 14745.8px 14760.9px 14774.8px 14791.3px 14804.6px 14817.1px 14821.4px 14827.2px 14841.1px 14855.7px 14871.6px 14885.1px 14899px 14913.6px 14919.5px 14925.8px 14931.2px 14945.1px 14960.2px 14974px 14987.8px 15001.6px 15015.7px 15029.7px 15044.2px " y="71.5px 71.5px 71.5px 71.5px 71.5px 71.5px 71.5px 71.5px 71.5px 71.5px 71.5px 71.5px 71.5px 71.5px 71.5px 71.5px 71.5px 71.5px 71.5px 71.5px 71.5px 71.5px 71.5px 71.5px 71.5px 71.5px 71.5px 71.5px 71.5px 71.5px 71.5px 71.5px 71.5px 71.5px 71.5px 71.5px 71.5px 71.5px 71.5px 71.5px 71.5px 71.5px 71.5px 71.5px 71.5px 71.5px 71.5px 71.5px 71.5px 71.5px 71.5px ">TOWARZYSZENIE KULTURY FIZYCZNEJ, SPORTU I TURYSTYKI</tspan></text><text x="14393.5px" y="113.5px" style="font-family:'Roboto-Regular', 'Roboto';font-size:28px;">N<tspan x="14414.4px 14423px 14439.9px 14465.8px 14474.4px 14493.7px 14513.9px 14539.4px 14557.2px 14576.4px 14596.8px 14604.3px 14612.4px 14619.8px 14636.9px 14652.5px 14671.7px 14690.1px 14710.4px 14736.2px 14744.8px 14764.1px 14781.9px 14801.1px 14820.3px 14838.1px 14857.4px " y="113.5px 113.5px 113.5px 113.5px 113.5px 113.5px 113.5px 113.5px 113.5px 113.5px 113.5px 113.5px 113.5px 113.5px 113.5px 113.5px 113.5px 113.5px 113.5px 113.5px 113.5px 113.5px 113.5px 113.5px 113.5px 113.5px 113.5px ">IEWIDOMYCH I SŁABOWIDZĄCYCH</tspan></text></g></g><path d="M161.399,20.747l-9.399,29.649" style="fill:none;stroke:#000;stroke-width:1px;"/></g></svg>