<?xml version="1.0" encoding="UTF-8" standalone="no"?><!DOCTYPE svg PUBLIC "-//W3C//DTD SVG 1.1//EN" "http://www.w3.org/Graphics/SVG/1.1/DTD/svg11.dtd"><svg width="100%" height="100%" viewBox="0 0 402 204" version="1.1" xmlns="http://www.w3.org/2000/svg" xmlns:xlink="http://www.w3.org/1999/xlink" xml:space="preserve" xmlns:serif="http://www.serif.com/" style="fill-rule:evenodd;clip-rule:evenodd;stroke-linejoin:round;stroke-miterlimit:1.41421;"><path d="M325.601,152.717l15.317,-2.411c0.853,6.144 3.263,10.849 7.202,14.141c3.91,3.263 9.408,4.91 16.493,4.91c7.114,0 12.406,-1.47 15.845,-4.352c3.44,-2.911 5.175,-6.321 5.175,-10.2c0,-3.529 -1.529,-6.262 -4.587,-8.291c-2.116,-1.381 -7.408,-3.116 -15.845,-5.234c-11.347,-2.881 -19.256,-5.35 -23.636,-7.467c-4.38,-2.086 -7.732,-4.996 -9.995,-8.701c-2.264,-3.706 -3.411,-7.79 -3.411,-12.259c0,-4.087 0.941,-7.85 2.823,-11.319c1.852,-3.497 4.409,-6.379 7.613,-8.671c2.41,-1.765 5.704,-3.293 9.85,-4.529c4.173,-1.233 8.641,-1.851 13.404,-1.851c7.174,0 13.465,1.057 18.904,3.116c5.438,2.056 9.436,4.851 12.024,8.378c2.586,3.557 4.35,8.261 5.321,14.171l-15.141,2.088c-0.705,-4.705 -2.704,-8.38 -5.997,-11.026c-3.293,-2.645 -7.966,-3.969 -13.994,-3.969c-7.114,0 -12.199,1.176 -15.227,3.529c-3.058,2.351 -4.586,5.115 -4.586,8.26c0,2.03 0.646,3.823 1.91,5.438c1.264,1.678 3.234,3.029 5.938,4.146c1.559,0.558 6.115,1.881 13.7,3.94c10.965,2.939 18.609,5.32 22.931,7.202c4.351,1.852 7.761,4.586 10.231,8.144c2.468,3.557 3.703,7.965 3.703,13.258c0,5.173 -1.527,10.025 -4.527,14.611c-3.028,4.556 -7.378,8.086 -13.053,10.584c-5.673,2.498 -12.112,3.733 -19.285,3.733c-11.907,0 -20.96,-2.469 -27.193,-7.409c-6.232,-4.939 -10.201,-12.26 -11.907,-21.96m-167.476,-64.549c-25.714,11.127 -43.787,36.763 -43.787,66.484c0,16.836 5.8,32.361 15.503,44.679c-14.709,-14.635 -23.836,-34.876 -23.836,-57.179c0,-14.391 3.803,-27.921 10.449,-39.641c-0.177,-0.004 -0.355,-0.006 -0.532,-0.006c-3.41,0 -6.438,1.028 -9.143,3.058c-2.704,2.056 -4.615,4.879 -5.762,8.496c-1.734,5.496 -2.586,11.523 -2.586,18.079l0,47.89l-15.494,0l0,-91.457l13.935,0l0,13.844c3.557,-6.466 6.849,-10.76 9.878,-12.816c2.998,-2.059 6.321,-3.116 9.936,-3.116c3.265,0 6.554,0.651 9.878,1.949c11.37,-12.72 26.691,-21.834 44.002,-25.379c-6.872,8.046 -11.668,16.335 -12.441,25.115m107.953,68.923c1.253,2.952 3.053,5.403 5.391,7.356c3.909,3.263 9.406,4.91 16.491,4.91c7.115,0 12.407,-1.47 15.846,-4.352c3.441,-2.911 5.175,-6.321 5.175,-10.2c0,-3.529 -1.528,-6.262 -4.587,-8.291c-2.115,-1.381 -7.407,-3.116 -15.846,-5.234c-9.638,-2.446 -16.797,-4.595 -21.419,-6.484c0.221,2.423 0.341,4.876 0.341,7.356c0,5.102 -0.48,10.096 -1.392,14.939m-93.629,-31.741l16.205,14.297c-2.383,16.524 0.952,30.664 5.719,45.28l-10.485,18.111l-0.954,-5.719l4.291,-13.346c-8.263,-17.158 -14.141,-35.744 -14.776,-58.623m56.718,48.138l9.055,28.597l3.337,-14.297l-5.719,-10.009l2.86,-10.964l-20.019,-27.168l-4.062,0.917c-26.029,-21.31 -30.464,-40.51 -24.871,-58.243c38.487,1.589 69.388,33.465 69.388,72.331c0,16.838 -5.802,32.363 -15.505,44.684c7.124,-7.089 12.942,-15.491 17.043,-24.807c0.062,0.048 0.121,0.1 0.182,0.148c6.232,4.94 15.287,7.409 27.192,7.409c7.174,0 13.613,-1.235 19.286,-3.733c5.674,-2.498 10.025,-6.028 13.053,-10.584c2.999,-4.586 4.527,-9.438 4.527,-14.611c0,-5.293 -1.235,-9.701 -3.704,-13.258c-2.469,-3.558 -5.88,-6.292 -10.23,-8.144c-4.321,-1.882 -11.966,-4.263 -22.932,-7.202c-7.585,-2.059 -12.14,-3.382 -13.698,-3.94c-2.705,-1.117 -4.675,-2.468 -5.939,-4.146c-1.264,-1.615 -1.911,-3.408 -1.911,-5.438c0,-3.145 1.53,-5.909 4.586,-8.26c3.029,-2.353 8.115,-3.529 15.229,-3.529c6.026,0 10.7,1.324 13.994,3.969c3.292,2.646 5.291,6.321 5.997,11.026l15.14,-2.088c-0.971,-5.91 -2.735,-10.614 -5.322,-14.171c-2.586,-3.527 -6.585,-6.322 -12.023,-8.378c-5.439,-2.059 -11.73,-3.116 -18.904,-3.116c-4.761,0 -9.231,0.618 -13.405,1.851c-4.145,1.236 -7.438,2.764 -9.848,4.529c-2.639,1.888 -4.836,4.176 -6.566,6.878c-12.036,-19.391 -32.057,-33.348 -55.406,-37.227c14.879,-21.445 38.966,-40.88 47.783,-59.657l-4.29,-2.383c-17.475,43.849 -121.697,76.261 -52.428,130.119c5.402,5.401 3.177,9.373 5.719,14.297l32.411,28.598Zm-164.347,-26.974l15.229,1.998c-1.647,10.497 -5.909,18.727 -12.789,24.666c-6.85,5.939 -15.287,8.908 -25.282,8.908c-12.495,0 -22.578,-4.086 -30.163,-12.259c-7.614,-8.172 -11.436,-19.903 -11.436,-35.191c0,-9.877 1.646,-18.521 4.91,-25.928c3.292,-7.41 8.261,-12.964 14.963,-16.669c6.674,-3.705 13.965,-5.556 21.814,-5.556c9.937,0 18.08,2.527 24.371,7.554c6.321,5.029 10.378,12.144 12.171,21.403l-15.081,2.322c-1.441,-6.144 -3.969,-10.758 -7.615,-13.876c-3.644,-3.085 -8.054,-4.645 -13.229,-4.645c-7.819,0 -14.17,2.793 -19.049,8.408c-4.881,5.587 -7.321,14.435 -7.321,26.547c0,12.289 2.352,21.226 7.085,26.812c4.703,5.556 10.848,8.349 18.433,8.349c6.086,0 11.142,-1.883 15.229,-5.615c4.086,-3.734 6.672,-9.466 7.76,-17.228m121.451,-117.442c4.462,0 8.102,5.781 8.102,12.87c0,7.086 -3.64,12.868 -8.102,12.868c-4.463,0 -8.103,-5.782 -8.103,-12.868c0,-7.089 3.64,-12.87 8.103,-12.87m-30.981,6.672l15.252,23.832l6.673,-0.476l-20.495,-29.553l-1.43,6.197Z" style="fill:#0076A8;"/></svg>