<?xml version="1.0" encoding="UTF-8" standalone="no"?><!DOCTYPE svg PUBLIC "-//W3C//DTD SVG 1.1//EN" "http://www.w3.org/Graphics/SVG/1.1/DTD/svg11.dtd"><svg width="100%" height="100%" viewBox="0 0 125 125" version="1.1" xmlns="http://www.w3.org/2000/svg" xmlns:xlink="http://www.w3.org/1999/xlink" xml:space="preserve" xmlns:serif="http://www.serif.com/" style="fill-rule:evenodd;clip-rule:evenodd;stroke-linejoin:round;stroke-miterlimit:1.41421;"><g><circle cx="62.276" cy="62.526" r="62.2" style="fill:#006e0e;"/><path d="M101.011,64.588c0,8.955 -1.582,16.807 -4.748,23.554c-3.165,6.748 -7.695,11.954 -13.589,15.62c-5.893,3.665 -12.651,5.498 -20.274,5.498c-7.539,0 -14.265,-1.812 -20.18,-5.436c-5.915,-3.624 -10.496,-8.799 -13.745,-15.526c-3.249,-6.726 -4.894,-14.463 -4.936,-23.21l0,-4.498c0,-8.955 1.614,-16.838 4.842,-23.648c3.228,-6.81 7.789,-12.038 13.683,-15.682c5.894,-3.645 12.631,-5.467 20.211,-5.467c7.581,0 14.318,1.822 20.212,5.467c5.894,3.644 10.454,8.872 13.682,15.682c3.228,6.81 4.842,14.672 4.842,23.585l0,4.061Zm-18.993,-4.123c0,-9.539 -1.707,-16.786 -5.123,-21.743c-3.415,-4.956 -8.289,-7.434 -14.62,-7.434c-6.289,0 -11.142,2.447 -14.557,7.341c-3.415,4.894 -5.144,12.068 -5.186,21.523l0,4.436c0,9.289 1.708,16.494 5.124,21.617c3.415,5.124 8.33,7.685 14.744,7.685c6.29,0 11.121,-2.468 14.495,-7.403c3.374,-4.936 5.082,-12.131 5.123,-21.586l0,-4.436Z" style="fill:#fff;fill-rule:nonzero;"/></g></svg>