<?xml version="1.0" encoding="UTF-8" standalone="no"?><!DOCTYPE svg PUBLIC "-//W3C//DTD SVG 1.1//EN" "http://www.w3.org/Graphics/SVG/1.1/DTD/svg11.dtd"><svg width="100%" height="100%" viewBox="0 0 128 128" version="1.1" xmlns="http://www.w3.org/2000/svg" xmlns:xlink="http://www.w3.org/1999/xlink" xml:space="preserve" xmlns:serif="http://www.serif.com/" style="fill-rule:evenodd;clip-rule:evenodd;stroke-linejoin:round;stroke-miterlimit:1.41421;"><g><circle cx="64" cy="63.716" r="63.51" style="fill:#d8e800;"/><path d="M80.427,85.789c0,-3.615 -1.276,-6.39 -3.828,-8.325c-2.551,-1.935 -7.145,-3.976 -13.779,-6.124c-6.635,-2.148 -11.887,-4.264 -15.757,-6.347c-10.547,-5.699 -15.821,-13.376 -15.821,-23.03c0,-5.018 1.414,-9.494 4.242,-13.428c2.829,-3.934 6.89,-7.007 12.185,-9.218c5.295,-2.212 11.238,-3.318 17.83,-3.318c6.635,0 12.546,1.202 17.735,3.605c5.188,2.402 9.218,5.794 12.089,10.175c2.87,4.38 4.306,9.356 4.306,14.927l-19.138,0c0,-4.253 -1.34,-7.559 -4.019,-9.92c-2.68,-2.36 -6.443,-3.54 -11.292,-3.54c-4.678,0 -8.314,0.989 -10.908,2.966c-2.595,1.978 -3.892,4.583 -3.892,7.815c0,3.02 1.521,5.55 4.561,7.591c3.041,2.042 7.517,3.956 13.429,5.742c10.887,3.274 18.819,7.336 23.795,12.184c4.976,4.849 7.464,10.888 7.464,18.118c0,8.038 -3.041,14.342 -9.123,18.914c-6.081,4.572 -14.268,6.858 -24.56,6.858c-7.145,0 -13.652,-1.308 -19.521,-3.923c-5.869,-2.616 -10.345,-6.199 -13.428,-10.749c-3.084,-4.551 -4.625,-9.825 -4.625,-15.821l19.201,0c0,10.249 6.124,15.374 18.373,15.374c4.55,0 8.102,-0.925 10.653,-2.775c2.552,-1.85 3.828,-4.434 3.828,-7.751Z" style="fill:#fff;fill-rule:nonzero;"/></g></svg>